0
SECTION
2
HEADER
9
$ACADVER
1
AC1015
0
ENDSEC
0
SECTION
2
TABLES
0
TABLE
2
LAYER
70
6
0
LAYER
2
MUROS_PERIMETRO
70
0
62
7
6
CONTINUOUS
0
LAYER
2
REFRIGERACION_FRIO
70
0
62
4
6
CONTINUOUS
0
LAYER
2
ESTANTERIA_SECA
70
0
62
8
6
CONTINUOUS
0
LAYER
2
CABECERAS_OFERTA
70
0
62
1
6
CONTINUOUS
0
LAYER
2
CAJAS_COBRO
70
0
62
2
6
CONTINUOUS
0
LAYER
2
COTAS_METRICAS
70
0
62
3
6
CONTINUOUS
0
ENDTAB
0
ENDSEC
0
SECTION
2
ENTITIES
0
LWPOLYLINE
8
MUROS_PERIMETRO
90
5
70
1
10
0.000
20
0.000
10
9.800
20
0.000
10
9.800
20
11.800
10
0.000
20
11.800
10
0.000
20
0.000
0
LWPOLYLINE
8
REFRIGERACION_FRIO
90
5
70
1
10
0.100
20
0.600
10
1.000
20
0.600
10
1.000
20
7.970
10
0.100
20
7.970
10
0.100
20
0.600
0
TEXT
8
REFRIGERACION_FRIO
10
0.550
20
4.285
30
0.000
40
0.250
1
CAMARA FRIO 7.37m x 0.90m
0
LWPOLYLINE
8
REFRIGERACION_FRIO
90
5
70
1
10
0.100
20
8.100
10
0.730
20
8.100
10
0.730
20
8.650
10
0.100
20
8.650
10
0.100
20
8.100
0
TEXT
8
REFRIGERACION_FRIO
10
0.415
20
8.375
30
0.000
40
0.180
1
CAM. PEQ 1 (0.55x0.63m)
0
LWPOLYLINE
8
REFRIGERACION_FRIO
90
5
70
1
10
0.100
20
8.750
10
0.730
20
8.750
10
0.730
20
9.300
10
0.100
20
9.300
10
0.100
20
8.750
0
TEXT
8
REFRIGERACION_FRIO
10
0.415
20
9.025
30
0.000
40
0.180
1
CAM. PEQ 2 (0.55x0.63m)
0
LWPOLYLINE
8
ESTANTERIA_SECA
90
5
70
1
10
8.750
20
0.600
10
9.700
20
0.600
10
9.700
20
8.300
10
8.750
20
8.300
10
8.750
20
0.600
0
TEXT
8
ESTANTERIA_SECA
10
9.225
20
4.450
30
0.000
40
0.250
1
MUEBLE SECO GRANDE 7.70m x 0.95m
0
LWPOLYLINE
8
ESTANTERIA_SECA
90
5
70
1
10
4.430
20
1.300
10
5.370
20
1.300
10
5.370
20
5.990
10
4.430
20
5.990
10
4.430
20
1.300
0
TEXT
8
ESTANTERIA_SECA
10
4.900
20
3.645
30
0.000
40
0.220
1
URNA SECO 4.69m x 0.94m
0
LWPOLYLINE
8
CABECERAS_OFERTA
90
5
70
1
10
4.130
20
6.100
10
5.670
20
6.100
10
5.670
20
7.050
10
4.130
20
7.050
10
4.130
20
6.100
0
TEXT
8
CABECERAS_OFERTA
10
4.900
20
6.575
30
0.000
40
0.200
1
MUEBLE 2 3x3 (1.54m x 0.95m)
0
LWPOLYLINE
8
CABECERAS_OFERTA
90
5
70
1
10
1.600
20
6.300
10
2.590
20
6.300
10
2.590
20
7.050
10
1.600
20
7.050
10
1.600
20
6.300
0
TEXT
8
CABECERAS_OFERTA
10
2.095
20
6.675
30
0.000
40
0.180
1
CABECERA 2 (0.99x0.75m)
0
LWPOLYLINE
8
CABECERAS_OFERTA
90
5
70
1
10
1.600
20
4.150
10
2.590
20
4.150
10
2.590
20
4.900
10
1.600
20
4.900
10
1.600
20
4.150
0
TEXT
8
CABECERAS_OFERTA
10
2.095
20
4.525
30
0.000
40
0.180
1
CABECERA 3 (0.99x0.75m)
0
LWPOLYLINE
8
CABECERAS_OFERTA
90
5
70
1
10
6.800
20
6.000
10
7.790
20
6.000
10
7.790
20
6.750
10
6.800
20
6.750
10
6.800
20
6.000
0
TEXT
8
CABECERAS_OFERTA
10
7.295
20
6.375
30
0.000
40
0.180
1
CABECERA 6 (0.99x0.75m)
0
LWPOLYLINE
8
CABECERAS_OFERTA
90
5
70
1
10
6.800
20
4.950
10
7.790
20
4.950
10
7.790
20
5.700
10
6.800
20
5.700
10
6.800
20
4.950
0
TEXT
8
CABECERAS_OFERTA
10
7.295
20
5.325
30
0.000
40
0.180
1
CABECERA 5 (0.99x0.75m)
0
LWPOLYLINE
8
CABECERAS_OFERTA
90
5
70
1
10
6.800
20
3.900
10
7.790
20
3.900
10
7.790
20
4.650
10
6.800
20
4.650
10
6.800
20
3.900
0
TEXT
8
CABECERAS_OFERTA
10
7.295
20
4.275
30
0.000
40
0.180
1
CABECERA 4 (0.99x0.75m)
0
LWPOLYLINE
8
CAJAS_COBRO
90
5
70
1
10
3.200
20
8.600
10
4.100
20
8.600
10
4.100
20
10.400
10
3.200
20
10.400
10
3.200
20
8.600
0
TEXT
8
CAJAS_COBRO
10
3.650
20
9.500
30
0.000
40
0.220
1
CAJA 01 (1.80m x 0.90m)
0
LWPOLYLINE
8
CAJAS_COBRO
90
5
70
1
10
5.100
20
8.600
10
6.000
20
8.600
10
6.000
20
10.400
10
5.100
20
10.400
10
5.100
20
8.600
0
TEXT
8
CAJAS_COBRO
10
5.550
20
9.500
30
0.000
40
0.220
1
CAJA 02 (1.80m x 0.90m)
0
LWPOLYLINE
8
CAJAS_COBRO
90
5
70
1
10
8.750
20
8.900
10
9.700
20
8.900
10
9.700
20
10.300
10
8.750
20
10.300
10
8.750
20
8.900
0
TEXT
8
CAJAS_COBRO
10
9.225
20
9.600
30
0.000
40
0.200
1
CAJA 03 RAPIDA (1.40x0.95m)
0
ENDSEC
0
EOF
